<svg height="481pt" viewBox="-26 0 481 481.623" width="481pt" xmlns="http://www.w3.org/2000/svg"><path d="m216.925781 286.738281h-29.230469l-3.890624-81.648437c-.328126-6.917969-3.289063-13.449219-8.269532-18.261719l-4.417968-4.269531c-5.304688-5.117188-8.300782-12.167969-8.300782-19.539063v-47.859375c-.726562-7.1875 1.625-14.347656 6.472656-19.710937 4.84375-5.359375 11.730469-8.417969 18.957032-8.417969h5.640625l7.679687 23.589844 5.949219-6.652344-6.789063 63.230469 16.300782 16.300781 16.296875-16.300781-6.75-62.871094 5.921875 6.292969 8.46875-23.589844h4.851562c7.222656 0 14.113282 3.058594 18.957032 8.417969 4.84375 5.363281 7.191406 12.523437 6.460937 19.710937v47.898438c0 7.335937-2.964844 14.363281-8.21875 19.480468l-4.429687 4.3125c-4.941407 4.800782-7.871094 11.296876-8.199219 18.179688l-3.890625 81.707031zm0 0" fill="#00efd1"/><path d="m240.753906 30.828125v10.113281c.003906 13.503906-10.945312 24.449219-24.449218 24.449219h-.269532c-13.507812.003906-24.460937-10.941406-24.460937-24.449219v-10.113281c.003906-13.503906 10.957031-24.449219 24.460937-24.449219h.269532c13.503906.003906 24.449218 10.949219 24.449218 24.449219zm0 0" fill="#00efd1"/><path d="m226.574219 104.328125 6.75 62.871094-16.296875 16.300781-16.300782-16.300781 6.789063-63.230469 9.128906-10.199219zm0 0" fill="#00acea"/><g fill="#083863"><path d="m49.546875 352.089844c.085937-7.78125 6.398437-14.054688 14.179687-14.089844h146.820313v67h12v-67h147.578125c7.71875 0 14.421875 6.371094 14.421875 14.089844v52.910156h12v-52.910156c0-14.335938-12.085937-26.089844-26.421875-26.089844h-147.578125v-33h23.949219c3.226562-.058594 5.851562-2.621094 5.992187-5.84375l3.890625-81.773438c.25-5.375 2.535156-10.453124 6.390625-14.199218l4.585938-4.328125c6.441406-6.25 10.113281-14.820313 10.191406-23.796875v-47.609375c0-8.753907-2.265625-17.5-8.164063-24.035157-6.046874-6.625-14.597656-10.402343-23.566406-10.414062h-4.851562c-2.535156.007812-4.792969 1.601562-5.644532 3.988281l-5.164062 14.382813-9.140625-9.714844c-1.152344-1.222656-2.765625-1.910156-4.445313-1.886719-1.679687.019531-3.273437.746094-4.394531 2l-8.132812 9.082031-4.453125-13.699218c-.804688-2.472656-3.105469-4.148438-5.703125-4.152344h-5.640625c-8.960938.011719-17.503906 3.789062-23.542969 10.410156-6.027344 6.480469-8.996094 15.226563-8.15625 24.035156v47.574219c.070313 9.007813 3.773437 17.609375 10.265625 23.855469l4.488281 4.269531c3.898438 3.742188 6.214844 8.832031 6.476563 14.230469l3.90625 81.78125c.152344 3.226562 2.78125 5.785156 6.011718 5.84375h22.851563v33h-146.820313c-14.40625.042969-26.085937 11.683594-26.179687 26.089844v52.910156h12zm167.207031-249.445313 4.070313 4.328125 6.230469 58.015625-10.027344 10.027344-10.03125-10.027344 6.277344-58.457031zm-26.957031 102.289063c-.386719-8.464844-4-16.460938-10.09375-22.355469l-4.554687-4.296875c-4.160157-3.996094-6.539063-9.496094-6.601563-15.261719v-47.859375c0-.199218.125-.398437.097656-.601562-.527343-5.519532 1.300781-11.007813 5.03125-15.113282 3.734375-4.105468 9.023438-6.445312 14.570313-6.445312h1.28125l6.332031 19.464844c.644531 1.972656 2.265625 3.472656 4.28125 3.964844l-5.382813 50.125c-.191406 1.804687.441407 3.601562 1.726563 4.886718l16.300781 16.300782c2.339844 2.34375 6.140625 2.34375 8.484375 0l16.300781-16.300782c1.28125-1.285156 1.917969-3.078125 1.722657-4.882812l-5.378907-50.121094c1.957032-.476562 3.546876-1.90625 4.230469-3.804688l7.042969-19.632812h.628906c5.53125.035156 10.796875 2.386719 14.523438 6.476562 3.722656 4.09375 5.566406 9.558594 5.082031 15.070313-.019531.199219.125.410156.125.613281v47.898438c-.070313 5.734375-2.433594 11.199218-6.558594 15.179687l-4.5 4.308594c-6.058593 5.902344-9.648437 13.882813-10.054687 22.328125l-3.660156 76.125h-47.355469zm0 0"/><path d="m216.035156 71h.269532c8.011718.070312 15.714843-3.066406 21.398437-8.714844 5.679687-5.648437 8.867187-13.335937 8.84375-21.34375v-10.113281c0-16.789063-13.453125-30.828125-30.242187-30.828125h-.269532c-16.796875 0-30.488281 14.039062-30.488281 30.828125v10.113281c.03125 8.035156 3.269531 15.726563 8.992187 21.371094 5.722657 5.640625 13.460938 8.769531 21.496094 8.6875zm-18.488281-40.171875c0-10.171875 8.308594-18.828125 18.488281-18.828125h.269532c10.171874 0 18.242187 8.65625 18.242187 18.828125v10.113281c.023437 4.828125-1.894531 9.464844-5.324219 12.863282-3.433594 3.398437-8.089844 5.269531-12.917968 5.195312h-.269532c-4.855468.085938-9.542968-1.777344-13.015625-5.167969-3.472656-3.394531-5.445312-8.035156-5.472656-12.890625zm0 0"/><path d="m239.371094 415.355469-24.644532 24.648437-24.648437-24.648437-8.484375 8.488281 24.644531 24.644531-24.644531 24.648438 8.484375 8.484375 24.648437-24.644532 24.644532 24.644532 8.488281-8.484375-24.648437-24.648438 24.648437-24.644531zm0 0"/><path d="m32.734375 458.917969-23.601563-25.585938-8.820312 8.136719 27.648438 29.980469c2.242187 2.429687 6.027343 2.589843 8.464843.355469l52.347657-47.949219-8.105469-8.847657zm0 0"/><path d="m372.734375 458.917969-23.601563-25.585938-8.820312 8.136719 27.648438 29.980469c2.242187 2.429687 6.027343 2.589843 8.464843.355469l52.347657-47.949219-8.105469-8.847657zm0 0"/></g></svg>